<?xml version="1.0" encoding="UTF-8"?>
<svg width="150" height="60" viewBox="0 0 150 60" xmlns="http://www.w3.org/2000/svg">
  <!-- Background (transparent) -->
  <rect width="150" height="60" fill="white" opacity="0"/>
  
  <!-- Blue square elements -->
  <rect x="15" y="15" width="8" height="8" fill="#0078d7"/>
  <rect x="15" y="25" width="8" height="8" fill="#0078d7"/>
  
  <!-- Stylized "R" -->
  <path d="M30 15 h8 c6 0 10 3 10 9 c0 4 -2 7 -6 8 l7 13 h-8 l-6 -12 h-2 v12 h-6 v-30 z" fill="black"/>
  <path d="M36 26 h2 c2 0 3.5 -1 3.5 -2.5 c0 -1.5 -1.5 -2.5 -3.5 -2.5 h-2 v5 z" fill="white"/>
  
  <!-- "O" with steering wheel -->
  <path d="M60 15 c-5 0 -9 4 -9 9 v12 c0 5 4 9 9 9 s9 -4 9 -9 v-12 c0 -5 -4 -9 -9 -9 z" fill="black"/>
  <circle cx="60" cy="30" r="7" fill="white"/>
  
  <!-- Steering wheel inside "O" -->
  <circle cx="60" cy="30" r="5" stroke="black" stroke-width="1" fill="none"/>
  <circle cx="60" cy="30" r="1" fill="black"/>
  <line x1="56" y1="26" x2="58" y2="28" stroke="black" stroke-width="1"/>
  <line x1="64" y1="26" x2="62" y2="28" stroke="black" stroke-width="1"/>
  <line x1="56" y1="34" x2="58" y2="32" stroke="black" stroke-width="1"/>
  <line x1="64" y1="34" x2="62" y2="32" stroke="black" stroke-width="1"/>
  
  <!-- "NWAY" -->
  <path d="M75 15 v30 h-6 l-8 -18 v18 h-6 v-30 h6 l8 18 v-18 z" fill="black"/>
  <path d="M90 15 l9 30 h-7 l-1.5 -6 h-7 l-1.5 6 h-7 l9 -30 z M86 32 h4 l-2 -10 z" fill="black"/>
  <path d="M112 15 l-8 14 l8 16 h-7 l-5 -11 l-5 11 h-7 l8 -16 l-8 -14 h7 l5 9 l5 -9 z" fill="black"/>
  
  <!-- "CARS AND TRAVEL, INC." -->
  <text x="25" y="53" font-family="Arial, sans-serif" font-size="6" fill="#666666">CARS AND TRAVEL, INC.</text>
</svg>
