<?xml version="1.0" encoding="UTF-8"?>
<svg width="150" height="80" viewBox="0 0 150 80" xmlns="http://www.w3.org/2000/svg">
  <!-- Background -->
  <rect width="150" height="80" fill="#ffffff" opacity="0"/>
  
  <!-- Blue square element -->
  <rect x="15" y="25" width="13" height="13" fill="#0078d7"/>
  
  <!-- Stylized "R" -->
  <path d="M35 25 h8 c6 0 10 3 10 8 c0 3.5 -2 6 -5 7 l6 10 h-6 l-5 -9 h-3 v9 h-5 v-25 z" fill="#000000"/>
  <path d="M40 35 h3 c2 0 3 -1 3 -2.5 c0 -1.5 -1 -2.5 -3 -2.5 h-3 v5 z" fill="#ffffff"/>
  
  <!-- "ONWAY" -->
  <path d="M55 25 c-3 0 -5 2.5 -5 5.5 v9 c0 3 2 5.5 5 5.5 s5 -2.5 5 -5.5 v-9 c0 -3 -2 -5.5 -5 -5.5 z m0 5 c0.5 0 1 0.5 1 1.5 v7 c0 1 -0.5 1.5 -1 1.5 s-1 -0.5 -1 -1.5 v-7 c0 -1 0.5 -1.5 1 -1.5 z" fill="#000000"/>
  <path d="M70 25 v20 h-5 v-20 z" fill="#000000"/>
  <path d="M85 25 l-3 20 h-5 l-3 -20 h5 l1.5 13 l1.5 -13 z" fill="#000000"/>
  <path d="M96 25 h-5 l-5 20 h5 l0.6 -3 h3.8 l0.6 3 h5 z m-3.5 13 l1 -7 l1 7 z" fill="#000000"/>
  <path d="M112 30 h-3 v-5 h11 v5 h-3 v15 h-5 z" fill="#000000"/>
  
  <!-- Steering wheel icon -->
  <circle cx="27" cy="32" r="4" stroke="#000000" stroke-width="1" fill="none"/>
  <circle cx="27" cy="32" r="1" fill="#000000"/>
  <line x1="24" y1="29" x2="25.5" y2="30.5" stroke="#000000" stroke-width="1"/>
  <line x1="30" y1="29" x2="28.5" y2="30.5" stroke="#000000" stroke-width="1"/>
  <line x1="24" y1="35" x2="25.5" y2="33.5" stroke="#000000" stroke-width="1"/>
  <line x1="30" y1="35" x2="28.5" y2="33.5" stroke="#000000" stroke-width="1"/>
  
  <!-- "CARS AND TRAVEL, INC." -->
  <text x="15" y="55" font-family="Arial, sans-serif" font-size="7" fill="#666666">CARS AND TRAVEL, INC.</text>
</svg>
