<?xml version="1.0" encoding="UTF-8" standalone="no"?>
<svg width="240" height="120" viewBox="0 0 240 120" xmlns="http://www.w3.org/2000/svg">
  <g>
    <path d="M28.2,15.8c2.7,0,5.4,0.2,8.1,0.6c1.4,0.2,2.7,0.5,4.1,0.8c-4,2.3-7.8,4.7-11.4,7.2c-1.5,1-2.9,2-4.3,3.1c-0.4-0.8-0.7-1.6-1-2.5C22.4,21.2,24.8,17.8,28.2,15.8z" fill="#00a6eb"/>
    <path d="M58.9,50.4c2.8,5.9,4.3,12.3,4.3,19.1c0,24.4-19.8,44.2-44.2,44.2c-2.7,0-5.4-0.2-8-0.7c-4.3-0.7-8.3-2-12.1-3.9c4.9-8.1,11.4-15.4,19.4-21.3c0.5,0.2,1,0.4,1.5,0.5c4.5,1.4,9.3-1.1,10.7-5.6c1.4-4.5-1.1-9.3-5.6-10.7c-4.5-1.4-9.3,1.1-10.7,5.6c-0.9,2.9-0.2,5.9,1.6,8.1c-7.4,5.5-13.5,12.3-18,19.9c-3.9-3.6-7.2-7.8-9.8-12.5c-2.8-5.1-4.7-10.8-5.3-16.8c-0.2-1.6-0.3-3.3-0.3-4.9c0-6.1,1.3-11.9,3.7-17.1C0.8,37.1,12.3,23.3,28.2,15.8c-3.5,2-5.8,5.4-6.5,9.3c-0.4,1.9-0.4,3.9,0,5.8c0.6,2.9,2.1,5.4,4.3,7.2c4.5,3.6,11.1,3,15-1.4c3.9-4.4,3.5-11.1-0.8-15.1c1.3-1,2.7-2,4.1-3c3.7-2.5,7.5-4.8,11.4-7c3.5,1.4,6.9,3.2,9.9,5.4c6.1,4.3,11,10.2,14.3,16.9c-9,1.9-17.5,5.4-25.1,10.2c-0.6-0.3-1.2-0.5-1.9-0.7c-5.1-1.3-10.3,1.8-11.6,6.9c-1.3,5.1,1.8,10.3,6.9,11.6c5.1,1.3,10.3-1.8,11.6-6.9c0.7-2.9,0-5.8-1.8-8.1C67.5,42.3,76.7,38.5,86.5,37c0.3,1.8,0.5,3.7,0.5,5.6c0,2.3-0.2,4.6-0.6,6.8C84.9,57.2,81.9,64.5,77.4,70.9c-2.8,3.9-6.1,7.4-9.8,10.5c-3.7,3-7.9,5.5-12.3,7.4c-0.1,0-0.2,0.1-0.3,0.1c-0.2-0.5-0.3-1.1-0.3-1.7c0-3,2.4-5.4,5.4-5.4c3,0,5.4,2.4,5.4,5.4c0,1.3-0.5,2.5-1.2,3.4c-0.1,0.1-0.2,0.2-0.3,0.3c8.8-4.2,16.2-11,21.1-19.5c4.9-8.5,7.8-18.5,7.8-29.1c0-6.8-1.2-13.4-3.3-19.5c-2.1-6.1-5.2-11.7-9.1-16.6c-1.9-2.4-4-4.7-6.2-6.7c-3.5-3.2-7.3-6-11.5-8.1c-4.2-2.1-8.7-3.7-13.4-4.7C45.8,2.9,41.8,2.4,37.7,2.4c-8.5,0-16.6,1.9-23.8,5.3C6.6,11.1,0.5,16.3-4.4,22.6c-5,6.2-8.6,13.5-10.5,21.5c-1,4-1.5,8.1-1.5,12.4c0,2.1,0.1,4.1,0.3,6.1c0.8,7.7,3.1,14.9,6.5,21.3c3.5,6.4,8.1,12,13.6,16.6c5.5,4.6,11.8,8.1,18.7,10.3c3.5,1.1,7.1,1.8,10.8,2.2c1.9,0.2,3.8,0.3,5.7,0.3c10.8,0,20.9-3.2,29.3-8.6c8.5-5.4,15.3-13.1,19.5-22.2c4.2-9.1,6.6-19.3,6.6-29.9c0-9.3-1.8-18.2-5-26.3c-1.3-3.3-2.9-6.4-4.7-9.4c-1.4-2.2-2.9-4.3-4.6-6.3c-2.2-2.6-4.7-4.9-7.3-7c-4.2-3.3-8.9-6-13.9-8c-5-2-10.3-3.3-15.9-3.9c-2.8-0.3-5.6-0.5-8.5-0.5c-14.9,0-28.5,5.6-38.8,14.9C-4.6,15-10.6,25.6-13.2,37.5c-0.9,4-1.4,8.2-1.4,12.5c0,6.6,1.1,13,3.1,19c2.1,6,5.1,11.5,8.9,16.4c3.8,4.9,8.4,9.1,13.4,12.6c-0.3-0.2-0.6-0.3-0.9-0.5c-0.4-0.3-0.9-0.5-1.3-0.8c-0.4-0.3-0.9-0.6-1.3-0.9c-0.4-0.3-0.9-0.6-1.3-0.9c-0.4-0.3-0.9-0.6-1.3-1c-0.4-0.3-0.9-0.7-1.3-1c-0.4-0.3-0.8-0.7-1.3-1c-0.4-0.4-0.8-0.7-1.2-1.1c-0.4-0.4-0.8-0.7-1.2-1.1c-0.4-0.4-0.8-0.7-1.2-1.1c-0.4-0.4-0.8-0.8-1.1-1.1c-0.4-0.4-0.7-0.8-1.1-1.2c-0.4-0.4-0.7-0.8-1.1-1.2c-0.3-0.4-0.7-0.8-1-1.2c-0.3-0.4-0.7-0.8-1-1.3c-0.3-0.4-0.6-0.8-0.9-1.3c-0.3-0.4-0.6-0.9-0.9-1.3c-0.3-0.4-0.6-0.9-0.8-1.3c-0.3-0.4-0.5-0.9-0.8-1.4c-0.2-0.5-0.5-0.9-0.7-1.4c-0.2-0.5-0.5-0.9-0.7-1.4c-0.2-0.5-0.4-0.9-0.6-1.4c-0.2-0.5-0.4-1-0.6-1.5c-0.2-0.5-0.4-1-0.5-1.5c-0.2-0.5-0.3-1-0.5-1.5c-0.1-0.5-0.3-1-0.4-1.5c-0.1-0.5-0.2-1-0.3-1.5c-0.1-0.5-0.2-1-0.3-1.6c-0.1-0.5-0.1-1-0.2-1.6c-0.1-0.5-0.1-1.1-0.1-1.6c0-0.5-0.1-1.1-0.1-1.6c0-0.3,0-0.5,0-0.8c0-0.3,0-0.5,0-0.8c0-0.5,0-1.1,0.1-1.6c0-0.5,0.1-1.1,0.1-1.6c0.1-0.5,0.1-1.1,0.2-1.6c0.1-0.5,0.2-1.1,0.3-1.6c0.1-0.5,0.2-1,0.3-1.5c0.1-0.5,0.3-1,0.4-1.5c0.1-0.5,0.3-1,0.5-1.5c0.2-0.5,0.3-1,0.5-1.5c0.2-0.5,0.4-1,0.6-1.5c0.2-0.5,0.4-0.9,0.6-1.4c0.2-0.5,0.4-0.9,0.7-1.4c0.2-0.5,0.5-0.9,0.7-1.4c0.3-0.5,0.5-0.9,0.8-1.4c0.3-0.4,0.5-0.9,0.8-1.3c0.3-0.4,0.6-0.9,0.9-1.3c0.3-0.4,0.6-0.9,0.9-1.3c0.3-0.4,0.7-0.8,1-1.3c0.3-0.4,0.7-0.8,1-1.2c0.4-0.4,0.7-0.8,1.1-1.2c0.4-0.4,0.7-0.8,1.1-1.2c0.4-0.4,0.8-0.8,1.1-1.1c0.4-0.4,0.8-0.7,1.2-1.1c0.4-0.4,0.8-0.7,1.2-1.1c0.4-0.4,0.8-0.7,1.2-1.1c0.4-0.3,0.8-0.7,1.3-1c0.4-0.3,0.9-0.7,1.3-1c0.4-0.3,0.9-0.6,1.3-1c0.4-0.3,0.9-0.6,1.3-0.9c0.4-0.3,0.9-0.6,1.3-0.9c0.4-0.3,0.9-0.5,1.3-0.8c0.3-0.2,0.6-0.3,0.9-0.5c-5.1,3.5-9.6,7.7-13.4,12.6c-3.8,4.9-6.8,10.4-8.9,16.4c-2,6-3.1,12.4-3.1,19c0,4.3,0.5,8.5,1.4,12.5c2.6,11.9,8.6,22.5,16.9,30.7c10.3,9.3,23.9,14.9,38.8,14.9c2.9,0,5.7-0.2,8.5-0.5c5.6-0.6,10.9-1.9,15.9-3.9c5-2,9.6-4.7,13.9-8c2.6-2.1,5.1-4.4,7.3-7c1.7-2,3.2-4.1,4.6-6.3c1.8-3,3.4-6.1,4.7-9.4c3.2-8.1,5-17,5-26.3c0-10.7-2.4-20.8-6.6-29.9c-4.2-9.1-11-16.8-19.5-22.2c-8.4-5.4-18.5-8.6-29.3-8.6c-1.9,0-3.8,0.1-5.7,0.3c-3.7,0.3-7.3,1.1-10.8,2.2c-6.9,2.2-13.2,5.7-18.7,10.3c-5.5,4.6-10.1,10.2-13.6,16.6c-3.5,6.4-5.7,13.6-6.5,21.3c-0.2,2-0.3,4-0.3,6.1c0,4.3,0.5,8.4,1.5,12.4c1.9,8,5.5,15.3,10.5,21.5c4.9,6.3,11,11.4,18.1,15.1c7.2,3.4,15.3,5.3,23.8,5.3c4.1,0,8.1-0.5,11.9-1.3c4.7-1,9.1-2.6,13.4-4.7c4.2-2.1,8-4.9,11.5-8.1c2.2-2,4.3-4.3,6.2-6.7c3.9-4.9,7-10.5,9.1-16.6c2.1-6.1,3.3-12.7,3.3-19.5c0-10.6-2.9-20.6-7.8-29.1c-4.9-8.5-12.3-15.2-21.1-19.5c0.1,0.1,0.2,0.2,0.3,0.3c0.8,0.9,1.2,2.1,1.2,3.4c0,3-2.4,5.4-5.4,5.4c-3,0-5.4-2.4-5.4-5.4c0-0.6,0.1-1.2,0.3-1.7c0.1,0,0.2,0.1,0.3,0.1c4.5,1.9,8.6,4.4,12.3,7.4c3.7,3,7,6.6,9.8,10.5c4.5,6.4,7.5,13.7,9,21.5c0.4,2.2,0.6,4.5,0.6,6.8c0,1.9-0.2,3.8-0.5,5.6c-9.8-1.5-19-5.3-27.6-10.8c1.8-2.3,2.5-5.2,1.8-8.1c-1.3-5.1-6.5-8.2-11.6-6.9c-5.1,1.3-8.2,6.5-6.9,11.6c1.3,5.1,6.5,8.2,11.6,6.9c0.7-0.2,1.3-0.4,1.9-0.7c7.6,4.8,16.1,8.3,25.1,10.2c-3.3,6.7-8.2,12.6-14.3,16.9c-3.1,2.2-6.4,4-9.9,5.4c-3.9-2.2-7.7-4.6-11.4-7c-1.4-1-2.8-1.9-4.1-3c4.3-3.9,4.7-10.6,0.8-15.1c-3.9-4.4-10.5-5-15-1.4c-2.2,1.8-3.7,4.3-4.3,7.2c-0.4,1.9-0.4,3.9,0,5.8c0.7,3.9,3.1,7.3,6.5,9.3c-15.9-7.5-27.4-21.3-31.9-38.5c-2.4-5.2-3.7-11-3.7-17.1c0-1.6,0.1-3.2,0.3-4.9c0.7-5.9,2.5-11.6,5.3-16.8c2.6-4.7,5.9-8.9,9.8-12.5c4.5,7.6,10.6,14.4,18,19.9c-1.9,2.2-2.5,5.2-1.6,8.1c1.4,4.5,6.2,7,10.7,5.6c4.5-1.4,7-6.2,5.6-10.7c-1.4-4.5-6.2-7-10.7-5.6c-0.5,0.2-1,0.4-1.5,0.5c-8,5.9-14.5,13.2-19.4,21.3c-3.8-1.8-7.8-3.2-12.1-3.9c-2.6-0.4-5.3-0.7-8-0.7c-24.4,0-44.2,19.8-44.2,44.2c0,6.8,1.5,13.2,4.3,19.1" fill="#121212"/>
    <path d="M100.7,45.6c0-8.2,6.6-14.9,14.9-14.9c8.2,0,14.9,6.6,14.9,14.9c0,8.2-6.6,14.9-14.9,14.9C107.4,60.5,100.7,53.8,100.7,45.6 M125.6,45.6c0-5.5-4.5-10-10-10c-5.5,0-10,4.5-10,10c0,5.5,4.5,10,10,10C121.2,55.6,125.6,51.1,125.6,45.6" fill="#0941ab"/>
    <path d="M132.4,45.3c0-0.3,0-0.6,0-0.8l8.8-16.4h5.2l-9.5,17.9c0.1,0.8,0.2,1.5,0.4,2.2c1.4,4.2,5.3,7.3,9.9,7.3c5.7,0,10.4-4.7,10.4-10.4c0-1.1-0.2-2.2-0.5-3.2l0-0.1h-9.8v-4.3h13.9c0.7,2.3,1.1,4.7,1.1,7.3c0,0,0,0.1,0,0.1v0c0,8.2-6.6,14.9-14.9,14.9C139.1,59.8,132.5,53.3,132.4,45.3 M165.8,31.5l-3.3,8.2h3.3l3.3-8.2H165.8z M175.2,31.5h-15.1L150,59.5h5.2l2.5-6.2h15.1l2.5,6.2h5.2L175.2,31.5z M173.5,48.9h-10.7l5.4-13.3L173.5,48.9z M199.7,31.5l-11.1,28h-5.2l-11.1-28h5.2l8.5,21.4l8.5-21.4H199.7z M200,59.5h5.2V31.5H200V59.5z M209.3,59.5h5.2V40.8l18,18.7h5.2V31.5h-5.2v18.7l-18-18.7h-5.2V59.5z" fill="#121212"/>
    <text x="45" y="90" fill="#999" font-family="Arial, sans-serif" font-size="12" text-anchor="middle">CARS AND TRAVEL, INC.</text>
  </g>
</svg>
