<?xml version="1.0" encoding="UTF-8"?>
<svg width="40" height="40" viewBox="0 0 40 40" xmlns="http://www.w3.org/2000/svg">
  <!-- Blue background -->
  <circle cx="20" cy="20" r="20" fill="#0066cc"/>
  
  <!-- Airplane silhouette in white -->
  <path d="M32 20.5L20 15v-3c0-1.1.9-2 2-2s2 .9 2 2v1.5L32 8l-1 3-7 1.5V8l-2-1-2 1v4.5L13 11l-1-3 8 5.5V15L8 20.5V22l8-2.5V28l-3 2v2l5-1 5 1v-2l-3-2v-8.5l8 2.5v-1.5z" fill="white"/>
  
  <!-- Optional horizontal lines representing menu items -->
  <path d="M10 30h20M10 33h15" stroke="white" stroke-width="1.5" stroke-linecap="round"/>
</svg>
